Filename:
Grown Ups CAM XViD - IMAGiNE
 
http://www.imdb.com/title/tt1375670/

DETAILS:

Video
ID                               : 0
Format                           : MPEG-4 Visual
Format profile                   : Advanced Simple@L5
Format settings, BVOP            : Yes
Format settings, QPel            : No
Format settings, GMC             : No warppoints
Format settings, Matrix          : Default (MPEG)
Muxing mode                      : Packed bitstream
Codec ID                         : XVID
Codec ID/Hint                    : XviD
Duration                         : 1h 34mn
Bit rate                         : 1 938 Kbps
Width                            : 688 pixels
Height                           : 384 pixels
Display aspect ratio             : 16/9
Frame rate                       : 23.976 fps
Resolution                       : 24 bits
Colorimetry                      : 4:2:0
Scan type                        : Progressive
Bits/(Pixel*Frame)               : 0.306
Stream size                      : 1.28 GiB (91%)
Writing library                  : XviD 1.2.1 (UTC 2008-12-04)

Audio
ID                               : 1
Format                           : AC-3
Format/Info                      : Audio Coding 3
Codec ID                         : 2000
Duration                         : 1h 34mn
Bit rate mode                    : Constant
Bit rate                         : 192 Kbps
Channel(s)                       : 2 channels
Channel positions                : L R
Sampling rate                    : 48.0 KHz
Stream size                      : 130 MiB (9%)
Alignment                        : Aligned on interleaves
Interleave, duration             : 42 ms (1.00 video frame)
Interleave, preload duration     : 512 ms



NOTES:

IMAGiNE bringing you another release.....Grown Ups CAM

First off many thanks to slugger and the TA crew for the source files ;-)

Well firstly we cropped the borders and resized the video so we only got a 0.1% AR error.....then we cleaned up
the video,by changing the chroma,brightness,contrast,rgb colours,also used a smoother aswell.
The audio we left it untouched ,hence the AC3 192 audio......we never upscaled it,this is how the original audio was.
Yet again thanks to slugger and TA.

Enjoy
